<svg width="191px" height="161px" viewBox="0 0 191 161" version="1.1" xmlns="http://www.w3.org/2000/svg" xmlns:xlink="http://www.w3.org/1999/xlink">
    <!-- Generator: Sketch 3.8.1 (29687) - http://www.bohemiancoding.com/sketch -->
    <desc>Created with Sketch.</desc>
    <defs></defs>
    <g id="Group-4" stroke="none" stroke-width="1" fill="none" fill-rule="evenodd">
        <g id="Group-3" fill="#D8D8D8">
            <path d="M110.673322,12.0175701 C100.73264,6.89319819 89.4541914,4 77.5,4 C37.4593556,4 5,36.4593556 5,76.5 C5,112.392272 31.081928,142.192784 65.3266784,147.98243 C75.2673599,153.106802 86.5458086,156 98.5,156 C138.540644,156 171,123.540644 171,83.5 C171,47.6077275 144.918072,17.8072157 110.673322,12.0175701 Z M110.673322,12.0175701 C134.02902,24.0573163 150,48.413547 150,76.5 C150,116.540644 117.540644,149 77.5,149 C73.3516281,149 69.2846323,148.651588 65.3266784,147.98243 C41.9709802,135.942684 26,111.586453 26,83.5 C26,43.4593556 58.4593556,11 98.5,11 C102.648372,11 106.715368,11.348412 110.673322,12.0175701 Z" id="Combined-Shape"></path>
            <path d="M108.5,11.6840276 C111.76881,11.2330543 115.107189,11 118.5,11 C158.540644,11 191,43.4593556 191,83.5 C191,123.540644 158.540644,156 118.5,156 C115.107189,156 111.76881,155.766946 108.5,155.315972 C105.231188,155.766946 101.89281,156 98.5,156 C58.4593556,156 26,123.540644 26,83.5 C26,43.4593556 58.4593556,11 98.5,11 C101.89281,11 105.231188,11.2330542 108.499998,11.6840273 Z M108.5,11.6840276 C73.1915761,16.5552666 46,46.8521668 46,83.5 C46,120.147833 73.1915761,150.444733 108.5,155.315972 C143.808423,150.444735 171,120.147834 171,83.5 C171,46.8521661 143.808423,16.5552653 108.499998,11.6840273 Z" id="Combined-Shape"></path>
            <path d="M120.212549,17.9114645 C138.269164,31.0977219 150,52.4289192 150,76.5 C150,116.540644 117.540644,149 77.5,149 C59.2294676,149 42.5374306,142.241658 29.7874514,131.088535 C11.7308346,117.902276 0,96.5710795 0,72.5 C0,32.4593556 32.4593556,0 72.5,0 C90.7705324,0 107.462569,6.7583423 120.212549,17.9114645 Z M120.212549,17.9114645 C108.233183,9.16325853 93.4695635,4 77.5,4 C37.4593556,4 5,36.4593556 5,76.5 C5,98.270112 14.5953121,117.799119 29.7874514,131.088535 C41.7668141,139.836741 56.5304351,145 72.5,145 C112.540644,145 145,112.540644 145,72.5 C145,50.729888 135.404688,31.2008813 120.212549,17.9114645 Z" id="Combined-Shape"></path>
        </g>
        <path d="M88.1850961,1.76702907 L138.289265,13.5932202 C138.289265,13.5932202 130.624702,28.8696158 124.572074,22.0237162 C118.519447,15.1778167 110.073302,12.656687 109.161094,11.7006495 C106.065429,8.45624738 107.096299,11.4205497 96.4317247,14.2297681 C85.7671501,17.0389865 91.2532037,14.8787996 91.1696338,14.9299033 C79.2934199,22.1923103 88.1850961,1.76702907 88.1850961,1.76702907 Z" id="Path-1" fill="#D8D8D8"></path>
        <path d="M65.7205141,148.10939 C65.7205141,148.10939 73.8530439,159.24829 83.8623625,160.009465 C93.871681,160.770641 108.784948,155.304339 108.784948,155.304339 L65.7205141,148.10939 Z" id="Path-2" fill="#FFFFFF"></path>
    </g>
</svg>
